<?xml version="1.0" encoding="UTF-8" standalone="no"?>
<!DOCTYPE svg PUBLIC "-//W3C//DTD SVG 1.1//EN" "http://www.w3.org/Graphics/SVG/1.1/DTD/svg11.dtd">
<svg version="1.1" xmlns="http://www.w3.org/2000/svg" xmlns:xlink="http://www.w3.org/1999/xlink"
     preserveAspectRatio="xMidYMid meet"
     viewBox="252 154 162 162"
     width="162" height="162"
     overflow="hidden">

  <defs>
    <clipPath id="bottomStrip">
      <rect x="252" y="311.53" width="162" height="4.47"/>
    </clipPath>
  </defs>

  <g transform="translate(320 320) scale(0.639) translate(-320 -320)">
    <path d="M408.41 207.05C420.99 200.13 426.65 195.73 433.57 183.78C438.18 175.81 432.94 169.52 417.84 164.91C417.84 157.36 413.02 152.33 403.38 149.81C388.91 146.04 389.54 127.17 386.4 113.96C383.25 100.76 375.08 109.56 369.42 117.11C363.76 124.66 365.2 134.22 348.85 143.02C332.5 151.83 323.06 179.5 323.69 190.82C324.11 198.37 321.81 206.12 316.77 214.09C308.39 223.73 301.68 230.23 296.65 233.59C291.62 236.94 281.76 240.3 267.09 243.65L260.8 246.8L253.25 253.08L248.22 259.37C237.32 274.05 229.14 286.63 223.69 297.11C215.52 312.83 206.71 366.29 214.26 399.63C221.81 432.96 211.11 441.76 206.71 453.71C202.31 465.66 201.05 522.9 255.77 531.07C310.48 539.25 350.74 516.61 353.25 511.57C354.93 508.22 349.27 506.96 336.27 507.8C309.44 515.35 284.91 515.35 262.69 507.8C229.35 496.48 230.61 488.3 228.72 478.24C227.47 471.53 228.51 466.71 231.87 463.78L241.3 465.66C281.97 466.92 310.07 467.97 325.58 468.81C348.85 470.07 354.51 461.26 353.25 451.83C352.41 445.54 344.45 443.02 329.35 444.28L333.13 437.99L341.3 428.56L341.3 421.01L346.96 428.56C350.32 441.97 355.35 451.2 362.06 456.23C372.12 463.78 375.89 462.52 387.84 461.26C395.81 460.42 398.12 456.23 394.76 448.68C398.12 449.94 400 448.47 400.42 444.28C401.05 437.99 402.94 438.62 392.87 434.22C386.17 431.28 382.81 426.25 382.81 419.12L382.81 339.88C382.81 336.52 387.84 326.67 397.91 310.32C407.97 293.96 411.95 270.48 409.86 239.88C400.51 222.6 400.02 211.66 408.41 207.05Z"
          fill="#2bbc8a"/>
  </g>

  <g transform="translate(320 320) scale(0.639) translate(-320 -320)">
    <path d="M408.41 207.05C420.99 200.13 426.65 195.73 433.57 183.78C438.18 175.81 432.94 169.52 417.84 164.91C417.84 157.36 413.02 152.33 403.38 149.81C388.91 146.04 389.54 127.17 386.4 113.96C383.25 100.76 375.08 109.56 369.42 117.11C363.76 124.66 365.2 134.22 348.85 143.02C332.5 151.83 323.06 179.5 323.69 190.82C324.11 198.37 321.81 206.12 316.77 214.09C308.39 223.73 301.68 230.23 296.65 233.59C291.62 236.94 281.76 240.3 267.09 243.65L260.8 246.8L253.25 253.08L248.22 259.37C237.32 274.05 229.14 286.63 223.69 297.11C215.52 312.83 206.71 366.29 214.26 399.63C221.81 432.96 211.11 441.76 206.71 453.71C202.31 465.66 201.05 522.9 255.77 531.07C310.48 539.25 350.74 516.61 353.25 511.57C354.93 508.22 349.27 506.96 336.27 507.8C309.44 515.35 284.91 515.35 262.69 507.8C229.35 496.48 230.61 488.3 228.72 478.24C227.47 471.53 228.51 466.71 231.87 463.78L241.3 465.66C281.97 466.92 310.07 467.97 325.58 468.81C348.85 470.07 354.51 461.26 353.25 451.83C352.41 445.54 344.45 443.02 329.35 444.28L333.13 437.99L341.3 428.56L341.3 421.01L346.96 428.56C350.32 441.97 355.35 451.2 362.06 456.23C372.12 463.78 375.89 462.52 387.84 461.26C395.81 460.42 398.12 456.23 394.76 448.68C398.12 449.94 400 448.47 400.42 444.28C401.05 437.99 402.94 438.62 392.87 434.22C386.17 431.28 382.81 426.25 382.81 419.12L382.81 339.88C382.81 336.52 387.84 326.67 397.91 310.32C407.97 293.96 411.95 270.48 409.86 239.88C400.51 222.6 400.02 211.66 408.41 207.05Z"
          fill-opacity="0" stroke="#000000" stroke-width="7"/>
  </g>

  <g clip-path="url(#bottomStrip)">
    <g transform="translate(320 320) scale(0.639) translate(-320 -320)">
      <path d="M408.41 207.05C420.99 200.13 426.65 195.73 433.57 183.78C438.18 175.81 432.94 169.52 417.84 164.91C417.84 157.36 413.02 152.33 403.38 149.81C388.91 146.04 389.54 127.17 386.4 113.96C383.25 100.76 375.08 109.56 369.42 117.11C363.76 124.66 365.2 134.22 348.85 143.02C332.5 151.83 323.06 179.5 323.69 190.82C324.11 198.37 321.81 206.12 316.77 214.09C308.39 223.73 301.68 230.23 296.65 233.59C291.62 236.94 281.76 240.3 267.09 243.65L260.8 246.8L253.25 253.08L248.22 259.37C237.32 274.05 229.14 286.63 223.69 297.11C215.52 312.83 206.71 366.29 214.26 399.63C221.81 432.96 211.11 441.76 206.71 453.71C202.31 465.66 201.05 522.9 255.77 531.07C310.48 539.25 350.74 516.61 353.25 511.57C354.93 508.22 349.27 506.96 336.27 507.8C309.44 515.35 284.91 515.35 262.69 507.8C229.35 496.48 230.61 488.3 228.72 478.24C227.47 471.53 228.51 466.71 231.87 463.78L241.3 465.66C281.97 466.92 310.07 467.97 325.58 468.81C348.85 470.07 354.51 461.26 353.25 451.83C352.41 445.54 344.45 443.02 329.35 444.28L333.13 437.99L341.3 428.56L341.3 421.01L346.96 428.56C350.32 441.97 355.35 451.2 362.06 456.23C372.12 463.78 375.89 462.52 387.84 461.26C395.81 460.42 398.12 456.23 394.76 448.68C398.12 449.94 400 448.47 400.42 444.28C401.05 437.99 402.94 438.62 392.87 434.22C386.17 431.28 382.81 426.25 382.81 419.12L382.81 339.88C382.81 336.52 387.84 326.67 397.91 310.32C407.97 293.96 411.95 270.48 409.86 239.88C400.51 222.6 400.02 211.66 408.41 207.05Z"
            fill="#000000"/>
    </g>
  </g>

</svg>
